<svg xmlns="http://www.w3.org/2000/svg" viewBox="0 0 128 128"><defs><style>.cls-1{fill:#02a4ff;}.cls-2{fill:#4231ff;}</style></defs><title>DataFor-logo</title><g id="图层_5" data-name="图层 5"><polygon class="cls-1" points="57.25 57.49 64.19 53.24 64.19 47.82 52.42 55.04 57.25 57.49"/><polygon class="cls-1" points="48.71 53.15 64.19 43.66 64.19 38.25 43.88 50.7 48.71 53.15"/><polygon class="cls-1" points="40.16 48.81 64.19 34.09 64.19 28.67 35.33 46.35 40.16 48.81"/><polygon class="cls-1" points="31.62 44.47 64.19 24.51 64.19 19.09 26.79 42.01 31.62 44.47"/><path class="cls-1" d="M27,37.71,60.11,17.43A43.21,43.21,0,0,0,27,37.71Z"/><path class="cls-2" d="M111,65.81a5.87,5.87,0,0,0-5-.8c-.72.22-2.3.94-3.07,1.28-3.44,1.49-8.76,4-15.87.83-6.78-3-11.86-.56-16.7,2.11-3,1.65-6.06,3.6-9.45,3.87-.5,0-1.16.09-1.64.09-5.59,0-10.14-2.56-15.48-5.48-2.29-1.24-4.69-2.55-7.29-3.71-5.63-2.51-20.08-9.26-21.45.57a49.31,49.31,0,0,0,98,3.7A6.15,6.15,0,0,0,111,65.81Z"/><path class="cls-1" d="M64.19,17.43V61l-39-19.8A43.62,43.62,0,0,0,21.35,52c5,0,11.69,3.08,15.1,4.6,2.6,1.16,5,2.47,7.29,3.72,5.34,2.92,9.89,5.47,15.48,5.47.48,0,1.14,0,1.64-.09,3.39-.27,6.47-2.22,9.45-3.86,4.84-2.68,9.92-5.11,16.7-2.12,7.11,3.14,12.43.66,15.87-.83.77-.33,2.35-1.06,3.07-1.28a5.93,5.93,0,0,1,1.89-.23A43.83,43.83,0,0,0,64.19,17.43Z"/></g></svg>